<svg xmlns="http://www.w3.org/2000/svg" viewBox="0 0 256 256">
<rect width="256" height="256" fill="#d43829"/>
<g transform="translate(0, 256) scale(0.1, -0.1)">
  <path d="M1645 2113 c10 -24 158 -429 241 -658 36 -99 81 -220 99 -270 124
-335 255 -699 255 -711 0 -11 -48 -13 -282 -14 -156 0 -286 0 -290 0 -10 0 21
-93 35 -102 6 -4 155 -8 330 -8 279 0 317 2 317 15 0 9 -25 84 -56 168 -31 84
-74 202 -96 262 -22 61 -48 133 -58 160 -40 107 -117 317 -268 735 l-159 435
-38 3 c-33 3 -37 1 -30 -15z" fill="#5b1e15"/>
  <path d="M1181 1393 c-34 -115 -61 -214 -61 -221 0 -10 17 -12 68 -10 l67 3
23 70 c12 39 26 82 31 97 7 21 1 55 -26 145 -19 65 -36 119 -38 121 -1 1 -30
-91 -64 -205z" fill="#5b1e15"/>
  <path d="M941 586 c-22 -74 -39 -117 -50 -121 -9 -3 -110 -6 -226 -5 -115 1
-220 1 -232 1 -16 -1 -27 -11 -38 -37 -33 -80 -54 -75 302 -72 l317 3 33 105
c18 58 33 111 33 118 0 9 53 12 230 12 144 0 230 4 230 10 0 5 -5 30 -12 55
l-12 45 -271 0 -271 0 -33 -114z" fill="#5b1e15"/>
  <path d="M905 2228 c-2 -7 -27 -74 -54 -148 -27 -74 -79 -216 -115 -315 -35
-99 -90 -250 -121 -335 -31 -85 -74 -204 -96 -265 -22 -60 -45 -121 -51 -135
-6 -14 -14 -36 -18 -50 -5 -14 -47 -131 -94 -259 -47 -129 -86 -239 -86 -243
0 -10 611 -10 625 0 6 4 17 27 24 52 7 25 22 75 33 113 l20 67 272 0 273 0 11
-37 c6 -21 20 -75 32 -120 l22 -83 324 0 c276 0 324 2 324 15 0 13 -28 91
-165 465 -45 121 -165 452 -362 990 -19 52 -41 115 -49 140 -8 25 -24 71 -36
103 l-20 57 -345 0 c-266 0 -345 -3 -348 -12z m381 -744 c58 -201 84 -299 84
-311 0 -10 -33 -13 -131 -13 -120 0 -131 1 -126 18 91 316 124 421 132 419 6
-2 24 -53 41 -113z" fill="#f4b91d"/>
</g>
</svg>
