<?xml version="1.0" encoding="UTF-8"?>
<svg xmlns="http://www.w3.org/2000/svg" xmlns:xlink="http://www.w3.org/1999/xlink" width="288" height="72" viewBox="0 0 288 72">
<path fill-rule="nonzero" fill="rgb(78.431702%, 18.823242%, 29.019165%)" fill-opacity="1" d="M 95.910156 54.21875 L 95.910156 25.417969 L 86.945312 25.417969 L 86.945312 18.265625 L 112.074219 18.265625 L 112.074219 25.417969 L 103.109375 25.417969 L 103.109375 54.21875 Z M 95.910156 54.21875 "/>
<path fill-rule="nonzero" fill="rgb(13.725281%, 12.156677%, 12.548828%)" fill-opacity="1" d="M 125.316406 54.21875 L 118.117188 54.21875 L 118.117188 17.460938 L 120.03125 17.460938 L 138.207031 38.609375 L 138.207031 18.265625 L 145.457031 18.265625 L 145.457031 54.976562 L 143.542969 54.976562 L 125.316406 34.632812 Z M 125.316406 54.21875 "/>
<path fill-rule="nonzero" fill="rgb(13.725281%, 12.156677%, 12.548828%)" fill-opacity="1" d="M 168.308594 25.015625 C 153.90625 25.015625 153.90625 47.269531 168.308594 47.269531 C 182.707031 47.269531 182.707031 25.015625 168.308594 25.015625 M 168.308594 17.613281 C 193.082031 17.613281 193.082031 54.722656 168.308594 54.722656 C 143.535156 54.722656 143.535156 17.613281 168.308594 17.613281 "/>
<path fill-rule="nonzero" fill="rgb(13.725281%, 12.156677%, 12.548828%)" fill-opacity="1" d="M 201.667969 54.972656 L 186.914062 18.214844 L 195.019531 18.214844 L 202.269531 36.59375 L 209.320312 18.570312 L 209.671875 18.570312 L 216.722656 36.59375 L 223.972656 18.214844 L 232.082031 18.214844 L 217.378906 54.824219 L 216.066406 54.824219 L 209.472656 38.863281 L 202.925781 54.972656 Z M 201.667969 54.972656 "/>
<path fill-rule="nonzero" fill="rgb(78.431702%, 18.823242%, 29.019165%)" fill-opacity="1" d="M 44.6875 43.59375 L 41.414062 34.230469 L 38.039062 43.59375 Z M 41.011719 16.90625 L 41.765625 16.90625 L 56.921875 54.21875 L 48.816406 54.21875 L 47.355469 50.34375 L 35.421875 50.34375 L 34.011719 54.21875 L 25.855469 54.21875 Z M 41.011719 16.90625 "/>
<path fill-rule="nonzero" fill="rgb(78.431702%, 18.823242%, 29.019165%)" fill-opacity="1" d="M 74.425781 25.015625 C 60.175781 25.015625 60.175781 46.96875 74.425781 46.96875 C 77.550781 46.96875 80.015625 46.0625 81.375 45.359375 L 82.332031 52.808594 C 80.117188 53.714844 76.945312 54.320312 74.425781 54.320312 C 50.007812 54.320312 50.054688 17.765625 74.425781 17.765625 C 76.945312 17.765625 79.363281 18.214844 81.527344 19.171875 L 80.671875 26.574219 C 79.3125 25.871094 77.550781 25.015625 74.425781 25.015625 "/>
<path fill-rule="nonzero" fill="rgb(13.725281%, 12.156677%, 12.548828%)" fill-opacity="1" d="M 31.082031 63.164062 C 31.082031 62.074219 30.351562 61.453125 28.957031 61.453125 L 27.105469 61.453125 L 27.105469 64.871094 L 28.957031 64.871094 C 30.351562 64.871094 31.082031 64.25 31.082031 63.164062 M 32.171875 63.164062 C 32.171875 64.816406 30.972656 65.820312 28.988281 65.820312 L 27.105469 65.820312 L 27.105469 68.128906 L 26.015625 68.128906 L 26.015625 60.503906 L 28.988281 60.503906 C 30.972656 60.503906 32.171875 61.507812 32.171875 63.164062 "/>
<path fill-rule="nonzero" fill="rgb(13.725281%, 12.156677%, 12.548828%)" fill-opacity="1" d="M 47.273438 63.164062 C 47.273438 62.074219 46.542969 61.453125 45.148438 61.453125 L 43.296875 61.453125 L 43.296875 64.882812 L 45.148438 64.882812 C 46.542969 64.882812 47.273438 64.25 47.273438 63.164062 M 47.308594 68.128906 L 45.664062 65.789062 C 45.507812 65.800781 45.347656 65.808594 45.183594 65.808594 L 43.296875 65.808594 L 43.296875 68.128906 L 42.207031 68.128906 L 42.207031 60.503906 L 45.183594 60.503906 C 47.164062 60.503906 48.363281 61.507812 48.363281 63.164062 C 48.363281 64.339844 47.753906 65.1875 46.6875 65.570312 L 48.496094 68.128906 Z M 47.308594 68.128906 "/>
<path fill-rule="nonzero" fill="rgb(13.725281%, 12.156677%, 12.548828%)" fill-opacity="1" d="M 58.457031 60.503906 L 59.546875 60.503906 L 59.546875 68.128906 L 58.457031 68.128906 Z M 58.457031 60.503906 "/>
<path fill-rule="nonzero" fill="rgb(13.725281%, 12.156677%, 12.548828%)" fill-opacity="1" d="M 76.71875 60.503906 L 76.71875 68.128906 L 75.824219 68.128906 L 71.25 62.441406 L 71.25 68.128906 L 70.160156 68.128906 L 70.160156 60.503906 L 71.054688 60.503906 L 75.628906 66.191406 L 75.628906 60.503906 Z M 76.71875 60.503906 "/>
<path fill-rule="nonzero" fill="rgb(13.725281%, 12.156677%, 12.548828%)" fill-opacity="1" d="M 88.847656 61.453125 L 86.234375 61.453125 L 86.234375 60.503906 L 92.542969 60.503906 L 92.542969 61.453125 L 89.929688 61.453125 L 89.929688 68.128906 L 88.847656 68.128906 Z M 88.847656 61.453125 "/>
<path fill-rule="nonzero" fill="rgb(13.725281%, 12.156677%, 12.548828%)" fill-opacity="1" d="M 122.921875 63.164062 C 122.921875 62.074219 122.191406 61.453125 120.796875 61.453125 L 118.945312 61.453125 L 118.945312 64.871094 L 120.796875 64.871094 C 122.191406 64.871094 122.921875 64.25 122.921875 63.164062 M 124.011719 63.164062 C 124.011719 64.816406 122.8125 65.820312 120.832031 65.820312 L 118.945312 65.820312 L 118.945312 68.128906 L 117.855469 68.128906 L 117.855469 60.503906 L 120.832031 60.503906 C 122.8125 60.503906 124.011719 61.507812 124.011719 63.164062 "/>
<path fill-rule="nonzero" fill="rgb(13.725281%, 12.156677%, 12.548828%)" fill-opacity="1" d="M 139.117188 63.164062 C 139.117188 62.074219 138.386719 61.453125 136.992188 61.453125 L 135.140625 61.453125 L 135.140625 64.882812 L 136.992188 64.882812 C 138.386719 64.882812 139.117188 64.25 139.117188 63.164062 M 139.148438 68.128906 L 137.503906 65.789062 C 137.351562 65.800781 137.1875 65.808594 137.023438 65.808594 L 135.140625 65.808594 L 135.140625 68.128906 L 134.050781 68.128906 L 134.050781 60.503906 L 137.023438 60.503906 C 139.007812 60.503906 140.203125 61.507812 140.203125 63.164062 C 140.203125 64.339844 139.59375 65.1875 138.527344 65.570312 L 140.335938 68.128906 Z M 139.148438 68.128906 "/>
<path fill-rule="nonzero" fill="rgb(13.725281%, 12.156677%, 12.548828%)" fill-opacity="1" d="M 156.691406 64.316406 C 156.691406 62.628906 155.429688 61.386719 153.742188 61.386719 C 152.03125 61.386719 150.765625 62.628906 150.765625 64.316406 C 150.765625 66.007812 152.03125 67.246094 153.742188 67.246094 C 155.429688 67.246094 156.691406 66.007812 156.691406 64.316406 M 149.675781 64.316406 C 149.675781 62.082031 151.398438 60.417969 153.742188 60.417969 C 156.0625 60.417969 157.78125 62.074219 157.78125 64.316406 C 157.78125 66.5625 156.0625 68.21875 153.742188 68.21875 C 151.398438 68.21875 149.675781 66.550781 149.675781 64.316406 "/>
<path fill-rule="nonzero" fill="rgb(13.725281%, 12.156677%, 12.548828%)" fill-opacity="1" d="M 174.847656 68.128906 L 174.835938 62.574219 L 172.082031 67.203125 L 171.578125 67.203125 L 168.824219 62.605469 L 168.824219 68.128906 L 167.777344 68.128906 L 167.777344 60.503906 L 168.671875 60.503906 L 171.851562 65.863281 L 174.988281 60.503906 L 175.882812 60.503906 L 175.894531 68.128906 Z M 174.847656 68.128906 "/>
<path fill-rule="nonzero" fill="rgb(13.725281%, 12.156677%, 12.548828%)" fill-opacity="1" d="M 192.90625 64.316406 C 192.90625 62.628906 191.640625 61.386719 189.953125 61.386719 C 188.242188 61.386719 186.976562 62.628906 186.976562 64.316406 C 186.976562 66.007812 188.242188 67.246094 189.953125 67.246094 C 191.640625 67.246094 192.90625 66.007812 192.90625 64.316406 M 185.886719 64.316406 C 185.886719 62.082031 187.609375 60.417969 189.953125 60.417969 C 192.273438 60.417969 193.996094 62.074219 193.996094 64.316406 C 193.996094 66.5625 192.273438 68.21875 189.953125 68.21875 C 187.609375 68.21875 185.886719 66.550781 185.886719 64.316406 "/>
<path fill-rule="nonzero" fill="rgb(13.725281%, 12.156677%, 12.548828%)" fill-opacity="1" d="M 205.503906 61.453125 L 202.890625 61.453125 L 202.890625 60.503906 L 209.199219 60.503906 L 209.199219 61.453125 L 206.582031 61.453125 L 206.582031 68.128906 L 205.503906 68.128906 Z M 205.503906 61.453125 "/>
<path fill-rule="nonzero" fill="rgb(13.725281%, 12.156677%, 12.548828%)" fill-opacity="1" d="M 224.246094 67.183594 L 224.246094 68.128906 L 218.710938 68.128906 L 218.710938 60.503906 L 224.09375 60.503906 L 224.09375 61.453125 L 219.800781 61.453125 L 219.800781 63.792969 L 223.625 63.792969 L 223.625 64.71875 L 219.800781 64.71875 L 219.800781 67.183594 Z M 224.246094 67.183594 "/>
<path fill-rule="nonzero" fill="rgb(78.431702%, 18.823242%, 29.019165%)" fill-opacity="1" d="M 103.300781 62.128906 C 103.300781 62.519531 103.453125 62.804688 104.074219 63.433594 C 105.078125 62.867188 105.402344 62.519531 105.402344 62.039062 C 105.402344 61.539062 105.042969 61.203125 104.390625 61.203125 C 103.703125 61.203125 103.300781 61.582031 103.300781 62.128906 M 105.992188 66.625 L 103.824219 64.46875 C 102.753906 65.070312 102.417969 65.515625 102.417969 66.125 C 102.417969 66.855469 103.105469 67.347656 104.128906 67.347656 C 104.859375 67.347656 105.5 67.105469 105.992188 66.625 M 107.625 68.25 L 106.613281 67.238281 C 105.949219 67.878906 105.078125 68.21875 104.0625 68.21875 C 102.515625 68.21875 101.394531 67.402344 101.394531 66.234375 C 101.394531 65.296875 101.929688 64.644531 103.246094 63.890625 C 102.558594 63.207031 102.332031 62.714844 102.332031 62.148438 C 102.332031 61.125 103.136719 60.441406 104.390625 60.441406 C 105.542969 60.441406 106.285156 61.039062 106.285156 62.027344 C 106.285156 62.804688 105.828125 63.359375 104.664062 64.023438 L 106.546875 65.898438 C 106.753906 65.503906 106.917969 65.046875 107.015625 64.511719 L 107.855469 64.785156 C 107.722656 65.460938 107.496094 66.050781 107.191406 66.527344 L 108.214844 67.554688 Z M 107.625 68.25 "/>
<path fill-rule="evenodd" fill="rgb(78.431702%, 18.823242%, 29.019165%)" fill-opacity="1" d="M 251.109375 40.035156 C 255.113281 33.867188 254.273438 24.640625 253.992188 18.261719 C 253.707031 11.863281 254.402344 4.144531 254.402344 4.144531 C 254.402344 4.144531 253.902344 6.378906 253.671875 9.152344 C 253.433594 11.925781 253.589844 22.214844 253.597656 26.140625 C 253.582031 30.070312 251.917969 37.121094 248.835938 42.289062 C 246.574219 46.109375 239.035156 52.644531 234.980469 56.074219 C 233.554688 57.28125 234.78125 57.863281 235.875 56.984375 C 241.902344 52.160156 247.71875 45.253906 251.109375 40.035156 "/>
<path fill-rule="evenodd" fill="rgb(78.431702%, 18.823242%, 29.019165%)" fill-opacity="1" d="M 259.238281 32.164062 C 258.429688 31.914062 259.601562 30.75 261.265625 25.992188 C 262.933594 21.234375 261.15625 16.121094 261.15625 16.121094 C 261.15625 16.121094 260.179688 17.648438 259.210938 17.390625 C 258.226562 17.140625 259.640625 13.898438 259.640625 13.898438 C 259.640625 13.898438 257.617188 15.386719 257.21875 14.613281 C 256.835938 13.816406 257.433594 11.304688 257.570312 8.988281 C 257.734375 6.691406 255.167969 4.058594 255.167969 4.058594 C 255.167969 4.058594 255.046875 6.613281 255.066406 8.625 C 255.082031 10.636719 255.710938 21.800781 255.234375 27.007812 C 254.742188 32.234375 254.261719 36.945312 251.101562 41.992188 C 247.941406 47.019531 240.058594 54.191406 240.058594 54.191406 C 240.417969 54.171875 240.765625 54.148438 241.101562 54.117188 C 241.292969 54.101562 241.480469 54.078125 241.664062 54.058594 C 241.847656 54.039062 242.027344 54.015625 242.199219 53.992188 C 242.332031 53.972656 242.464844 53.953125 242.59375 53.933594 C 242.8125 53.898438 243.023438 53.863281 243.230469 53.820312 C 243.332031 53.800781 243.441406 53.78125 243.542969 53.757812 C 243.566406 53.753906 243.589844 53.75 243.613281 53.746094 C 243.730469 53.71875 243.835938 53.6875 243.949219 53.660156 C 244.222656 53.59375 244.480469 53.527344 244.726562 53.453125 C 244.835938 53.421875 244.949219 53.390625 245.050781 53.359375 L 245.0625 53.351562 C 247.992188 52.398438 248.972656 50.996094 248.972656 50.996094 C 248.972656 50.996094 247.628906 50.847656 247.371094 50.347656 C 247.109375 49.851562 250.066406 49.175781 252.246094 47.542969 C 254.421875 45.914062 258.492188 40.386719 258.492188 40.386719 C 258.492188 40.386719 257.289062 40.855469 256.792969 40.257812 C 256.296875 39.664062 257.574219 39.300781 259.082031 37.550781 C 260.605469 35.785156 262.144531 30.390625 262.144531 30.390625 C 262.144531 30.390625 260.070312 32.417969 259.238281 32.164062 "/>
<path fill-rule="evenodd" fill="rgb(78.431702%, 18.823242%, 29.019165%)" fill-opacity="1" d="M 247.304688 10.464844 C 247.304688 10.464844 247.308594 10.457031 247.308594 10.457031 C 247.308594 10.457031 247.214844 10.371094 247.304688 10.464844 "/>
<path fill-rule="evenodd" fill="rgb(78.431702%, 18.823242%, 29.019165%)" fill-opacity="1" d="M 237.773438 51.671875 C 237.796875 51.8125 237.832031 51.949219 237.847656 52.089844 C 237.847656 52.089844 237.851562 52.085938 237.851562 52.085938 C 237.851562 52.089844 237.855469 52.089844 237.855469 52.09375 C 237.855469 52.09375 248.273438 43.425781 250.128906 38.191406 C 251.984375 32.972656 252.601562 25.054688 252.554688 18.851562 C 252.507812 12.652344 252.566406 8.902344 252.929688 7.445312 C 253.3125 5.988281 253.75 3.753906 253.75 3.753906 C 253.75 3.753906 253.742188 3.757812 253.742188 3.757812 C 253.742188 3.757812 253.742188 3.75 253.742188 3.75 C 253.742188 3.75 253.742188 3.769531 253.703125 3.789062 C 253.253906 4.160156 249.5 7.320312 248.972656 9.046875 C 248.398438 10.90625 249.019531 12.195312 248.003906 11.167969 C 247.558594 10.722656 247.375 10.539062 247.304688 10.464844 C 247.285156 10.546875 246.558594 13.464844 246.789062 15.5625 C 247.042969 17.714844 247.082031 17.832031 247.082031 17.832031 C 247.082031 17.832031 245.59375 16.882812 245.433594 16.570312 C 245.273438 16.230469 245.257812 20.097656 245.824219 21.351562 C 246.382812 22.582031 247.128906 24.472656 246.890625 24.496094 C 246.65625 24.539062 245.238281 22.515625 245.238281 22.515625 C 245.238281 22.515625 244.9375 24.609375 245.394531 27.398438 C 245.84375 30.1875 246.328125 31.003906 245.953125 31.066406 C 245.597656 31.148438 244.195312 27.964844 244.195312 27.964844 C 244.195312 27.964844 243.933594 29.683594 244.050781 32.613281 C 244.171875 35.5625 244.523438 35.839844 244.113281 35.746094 C 243.71875 35.648438 242.136719 33.007812 242.136719 33.007812 C 242.136719 33.007812 241.738281 35.003906 241.886719 36.71875 C 242.035156 38.414062 242.976562 39.921875 242.382812 39.566406 C 241.785156 39.195312 240.941406 37.125 240.941406 37.125 C 240.925781 37.425781 240.359375 38.605469 240.25 39.640625 C 240.046875 41.417969 240.257812 43.289062 240.160156 43.230469 C 239.859375 43.074219 239.035156 40.585938 239.035156 40.585938 C 239.035156 40.585938 236.578125 44.5 237.78125 51.636719 C 237.777344 51.648438 237.773438 51.660156 237.773438 51.671875 "/>
<path fill-rule="nonzero" fill="rgb(13.725281%, 12.156677%, 12.548828%)" fill-opacity="1" d="M 234.980469 56.078125 L 235.78125 57.054688 L 232.503906 60.46875 C 232.503906 60.46875 231.382812 60.28125 230.988281 60.292969 C 230.582031 60.304688 229.328125 60.570312 229.328125 60.570312 Z M 234.980469 56.078125 "/>
</svg>
